<?xml version="1.0" encoding="utf-8"?>
<svg version="1.1" xmlns="http://www.w3.org/2000/svg" x="0px" y="0px"
	 viewBox="0 0 128 128" xml:space="preserve">
<defs>
  <linearGradient id="lipGlow" x1="0%" y1="0%" x2="100%" y2="100%">
    <stop offset="0%" stop-color="#ff67d9"/>
    <stop offset="55%" stop-color="#ff2f9e"/>
    <stop offset="100%" stop-color="#ff005c"/>
  </linearGradient>
  <linearGradient id="lipDepth" x1="0%" y1="0%" x2="100%" y2="0%">
    <stop offset="0%" stop-color="#ff9adf"/>
    <stop offset="100%" stop-color="#ff1e7c"/>
  </linearGradient>
  <filter id="glow" x="-50%" y="-50%" width="200%" height="200%">
    <feGaussianBlur stdDeviation="6" result="blur"/>
    <feMerge>
      <feMergeNode in="blur"/>
      <feMergeNode in="SourceGraphic"/>
    </feMerge>
  </filter>
</defs>

<rect x="8" y="8" width="112" height="112" rx="28" fill="#07030b" stroke="#ff7ac6" stroke-width="2"/>
<rect x="14" y="14" width="100" height="100" rx="24" fill="url(#lipGlow)" opacity="0.12"/>

<g filter="url(#glow)">
  <path
    d="M20 58 C34 36 94 36 108 58 C96 54 82 52 64 52 C46 52 32 54 20 58 Z"
    fill="url(#lipGlow)"
  />
  <path
    d="M20 70 C32 92 96 92 108 70 C92 76 78 78 64 78 C50 78 36 76 20 70 Z"
    fill="url(#lipDepth)"
  />
</g>

<path d="M30 64 H98" stroke="#ffd0e7" stroke-width="3" stroke-linecap="round" opacity="0.75"/>
<circle cx="64" cy="64" r="4" fill="#ffd0e7" opacity="0.9"/>
</svg>
